# xmcd
#
# Track frame offsets:
#	150
#	14799
#	28945
#	43290
#	60924
#	78824
#	98047
#	116226
#	134020
#	147703
#	163871
#	182132
#	198751
#	223404
#	241057
#
# Disc length: 3466 seconds
#
# Revision: 1
# Processed by: cddbd v1.5.2PL0 Copyright (c) Steve Scherf et al.
# Submitted via: EZCDAudioConverter 7.1.0.1
#
DISCID=e40d880f
DTITLE=周鹏 - 自己美
DYEAR=2004
DGENRE=
TTITLE0=笑破了
TTITLE1=摘星星
TTITLE2=找什么
TTITLE3=瘦身运动
TTITLE4=咚吧啦
TTITLE5=自己美
TTITLE6=停电的月亮
TTITLE7=感谢世界
TTITLE8=现代爱情宣言
TTITLE9=你愿意嫁给我吗
TTITLE10=小狐仙
TTITLE11=咚吧啦 (Rimix)
TTITLE12=咚吧啦 (Dance&Rimix)
TTITLE13=咚吧啦 (伴奏)
TTITLE14=自己美 (伴奏)
EXTD=
EXTT0=
EXTT1=
EXTT2=
EXTT3=
EXTT4=
EXTT5=
EXTT6=
EXTT7=
EXTT8=
EXTT9=
EXTT10=
EXTT11=
EXTT12=
EXTT13=
EXTT14=
PLAYORDER=
